<svg width="44" height="60" viewBox="0 0 44 60" fill="none" xmlns="http://www.w3.org/2000/svg">
<path d="M22 38C24.8289 38 27.542 36.8762 29.5424 34.8758C31.5428 32.8754 32.6666 30.1623 32.6666 27.3333V11.3333C32.6666 8.50436 31.5428 5.79125 29.5424 3.79087C27.542 1.79048 24.8289 0.666672 22 0.666672C19.171 0.666672 16.4579 1.79048 14.4575 3.79087C12.4571 5.79125 11.3333 8.50436 11.3333 11.3333V27.3333C11.3333 30.1623 12.4571 32.8754 14.4575 34.8758C16.4579 36.8762 19.171 38 22 38ZM16.6666 11.3333C16.6666 9.91885 17.2285 8.5623 18.2287 7.5621C19.2289 6.56191 20.5855 6 22 6C23.4144 6 24.771 6.56191 25.7712 7.5621C26.7714 8.5623 27.3333 9.91885 27.3333 11.3333V27.3333C27.3333 28.7478 26.7714 30.1044 25.7712 31.1046C24.771 32.1048 23.4144 32.6667 22 32.6667C20.5855 32.6667 19.2289 32.1048 18.2287 31.1046C17.2285 30.1044 16.6666 28.7478 16.6666 27.3333V11.3333ZM43.3333 27.3333C43.3333 26.6261 43.0523 25.9478 42.5522 25.4477C42.0521 24.9476 41.3739 24.6667 40.6666 24.6667C39.9594 24.6667 39.2811 24.9476 38.781 25.4477C38.2809 25.9478 38 26.6261 38 27.3333C38 31.5768 36.3143 35.6465 33.3137 38.647C30.3131 41.6476 26.2434 43.3333 22 43.3333C17.7565 43.3333 13.6868 41.6476 10.6863 38.647C7.68567 35.6465 5.99996 31.5768 5.99996 27.3333C5.99996 26.6261 5.71901 25.9478 5.21891 25.4477C4.71881 24.9476 4.04054 24.6667 3.33329 24.6667C2.62605 24.6667 1.94777 24.9476 1.44768 25.4477C0.947578 25.9478 0.666626 26.6261 0.666626 27.3333C0.671335 32.5261 2.56988 37.5389 6.00635 41.4319C9.44282 45.325 14.1812 47.8309 19.3333 48.48V54H14C13.2927 54 12.6144 54.281 12.1143 54.781C11.6142 55.2811 11.3333 55.9594 11.3333 56.6667C11.3333 57.3739 11.6142 58.0522 12.1143 58.5523C12.6144 59.0524 13.2927 59.3333 14 59.3333H30C30.7072 59.3333 31.3855 59.0524 31.8856 58.5523C32.3857 58.0522 32.6666 57.3739 32.6666 56.6667C32.6666 55.9594 32.3857 55.2811 31.8856 54.781C31.3855 54.281 30.7072 54 30 54H24.6666V48.48C29.8187 47.8309 34.5571 45.325 37.9936 41.4319C41.43 37.5389 43.3286 32.5261 43.3333 27.3333Z" fill="#00C470"/>
</svg>
