<svg width="54" height="54" viewBox="0 0 54 54" fill="none" xmlns="http://www.w3.org/2000/svg">
<path d="M45.3333 27H26.6667V8.33333C26.6667 6.73333 25.6 5.66666 24 5.66666C10.6667 5.66666 0 16.3333 0 29.6667C0 43 10.6667 53.6667 24 53.6667C37.3333 53.6667 48 43 48 29.6667C48 28.0667 46.9333 27 45.3333 27ZM26.6667 48.0667C16.5333 49.6667 6.93333 42.4667 5.6 32.3333C4 22.2 11.2 12.6 21.3333 11.2667V29.6667C21.3333 31.2667 22.4 32.3333 24 32.3333H42.4C41.3333 40.6 34.9333 47 26.6667 48.0667ZM34.6667 0.333328C33.0667 0.333328 32 1.39999 32 2.99999V19C32 20.6 33.0667 21.6667 34.6667 21.6667H50.6667C52.2667 21.6667 53.3333 20.6 53.3333 19C53.3333 8.59999 45.0667 0.333328 34.6667 0.333328ZM37.3333 16.3333V5.93333C42.6667 6.99999 46.6667 11 47.7333 16.3333H37.3333Z" fill="#AC3DF0"/>
</svg>
