<svg width="60" height="60" viewBox="0 0 60 60" fill="none" xmlns="http://www.w3.org/2000/svg">
<path d="M56.6667 43.3333H3.33335C2.62611 43.3333 1.94783 43.6143 1.44774 44.1144C0.947638 44.6145 0.666687 45.2928 0.666687 46C0.666687 46.7072 0.947638 47.3855 1.44774 47.8856C1.94783 48.3857 2.62611 48.6667 3.33335 48.6667H56.6667C57.3739 48.6667 58.0522 48.3857 58.5523 47.8856C59.0524 47.3855 59.3334 46.7072 59.3334 46C59.3334 45.2928 59.0524 44.6145 58.5523 44.1144C58.0522 43.6143 57.3739 43.3333 56.6667 43.3333ZM56.6667 54H3.33335C2.62611 54 1.94783 54.281 1.44774 54.781C0.947638 55.2811 0.666687 55.9594 0.666687 56.6667C0.666687 57.3739 0.947638 58.0522 1.44774 58.5523C1.94783 59.0524 2.62611 59.3333 3.33335 59.3333H56.6667C57.3739 59.3333 58.0522 59.0524 58.5523 58.5523C59.0524 58.0522 59.3334 57.3739 59.3334 56.6667C59.3334 55.9594 59.0524 55.2811 58.5523 54.781C58.0522 54.281 57.3739 54 56.6667 54ZM14 16.6667C13.4726 16.6667 12.957 16.8231 12.5185 17.1161C12.08 17.4091 11.7382 17.8256 11.5363 18.3128C11.3345 18.8001 11.2817 19.3363 11.3846 19.8536C11.4875 20.3709 11.7415 20.846 12.1144 21.219C12.4873 21.5919 12.9625 21.8459 13.4798 21.9488C13.9971 22.0517 14.5332 21.9988 15.0205 21.797C15.5078 21.5952 15.9243 21.2534 16.2173 20.8149C16.5103 20.3763 16.6667 19.8608 16.6667 19.3333C16.6667 18.6261 16.3857 17.9478 15.8856 17.4477C15.3855 16.9476 14.7073 16.6667 14 16.6667ZM51.3334 0.666672H8.66669C6.54495 0.666672 4.51012 1.50953 3.00983 3.00982C1.50954 4.51011 0.666687 6.54494 0.666687 8.66667V30C0.666687 32.1217 1.50954 34.1566 3.00983 35.6569C4.51012 37.1572 6.54495 38 8.66669 38H51.3334C53.4551 38 55.4899 37.1572 56.9902 35.6569C58.4905 34.1566 59.3334 32.1217 59.3334 30V8.66667C59.3334 6.54494 58.4905 4.51011 56.9902 3.00982C55.4899 1.50953 53.4551 0.666672 51.3334 0.666672ZM54 30C54 30.7072 53.7191 31.3855 53.219 31.8856C52.7189 32.3857 52.0406 32.6667 51.3334 32.6667H8.66669C7.95944 32.6667 7.28117 32.3857 6.78107 31.8856C6.28097 31.3855 6.00002 30.7072 6.00002 30V8.66667C6.00002 7.95943 6.28097 7.28115 6.78107 6.78105C7.28117 6.28096 7.95944 6 8.66669 6H51.3334C52.0406 6 52.7189 6.28096 53.219 6.78105C53.7191 7.28115 54 7.95943 54 8.66667V30ZM30 11.3333C28.4178 11.3333 26.871 11.8025 25.5555 12.6816C24.2399 13.5606 23.2145 14.8101 22.609 16.2719C22.0035 17.7337 21.8451 19.3422 22.1537 20.8941C22.4624 22.4459 23.2243 23.8714 24.3432 24.9902C25.462 26.109 26.8874 26.8709 28.4393 27.1796C29.9911 27.4883 31.5997 27.3299 33.0615 26.7244C34.5233 26.1189 35.7727 25.0935 36.6518 23.7779C37.5308 22.4623 38 20.9156 38 19.3333C38 17.2116 37.1572 15.1768 35.6569 13.6765C34.1566 12.1762 32.1217 11.3333 30 11.3333ZM30 22C29.4726 22 28.957 21.8436 28.5185 21.5506C28.08 21.2576 27.7382 20.8411 27.5363 20.3538C27.3345 19.8666 27.2817 19.3304 27.3846 18.8131C27.4875 18.2958 27.7415 17.8207 28.1144 17.4477C28.4873 17.0748 28.9625 16.8208 29.4798 16.7179C29.9971 16.615 30.5332 16.6678 31.0205 16.8697C31.5078 17.0715 31.9243 17.4133 32.2173 17.8518C32.5103 18.2903 32.6667 18.8059 32.6667 19.3333C32.6667 20.0406 32.3857 20.7189 31.8856 21.219C31.3855 21.7191 30.7073 22 30 22ZM46 16.6667C45.4726 16.6667 44.957 16.8231 44.5185 17.1161C44.08 17.4091 43.7382 17.8256 43.5363 18.3128C43.3345 18.8001 43.2817 19.3363 43.3846 19.8536C43.4875 20.3709 43.7415 20.846 44.1144 21.219C44.4873 21.5919 44.9625 21.8459 45.4798 21.9488C45.9971 22.0517 46.5332 21.9988 47.0205 21.797C47.5078 21.5952 47.9243 21.2534 48.2173 20.8149C48.5103 20.3763 48.6667 19.8608 48.6667 19.3333C48.6667 18.6261 48.3857 17.9478 47.8856 17.4477C47.3855 16.9476 46.7073 16.6667 46 16.6667Z" fill="#10ABED" fill-opacity="0.91"/>
</svg>
