<svg width="52" height="54" viewBox="0 0 52 54" fill="none" xmlns="http://www.w3.org/2000/svg">
<path d="M24.6666 48.3333H8.66663C7.95938 48.3333 7.28111 48.0524 6.78101 47.5523C6.28091 47.0522 5.99996 46.3739 5.99996 45.6667V8.33333C5.99996 7.62608 6.28091 6.94781 6.78101 6.44771C7.28111 5.94761 7.95938 5.66666 8.66663 5.66666H22V13.6667C22 15.7884 22.8428 17.8232 24.3431 19.3235C25.8434 20.8238 27.8782 21.6667 30 21.6667H38V35C38 35.7072 38.2809 36.3855 38.781 36.8856C39.2811 37.3857 39.9594 37.6667 40.6666 37.6667C41.3739 37.6667 42.0522 37.3857 42.5522 36.8856C43.0523 36.3855 43.3333 35.7072 43.3333 35V19C43.3333 19 43.3333 19 43.3333 18.84C43.3055 18.595 43.2519 18.3537 43.1733 18.12V17.88C43.0451 17.6058 42.8741 17.3538 42.6666 17.1333L26.6666 1.13333C26.4462 0.925905 26.1941 0.754878 25.92 0.626661C25.8317 0.61122 25.7415 0.61122 25.6533 0.626661C25.394 0.488003 25.1153 0.38912 24.8266 0.333328H8.66663C6.54489 0.333328 4.51006 1.17618 3.00977 2.67647C1.50948 4.17677 0.666626 6.2116 0.666626 8.33333V45.6667C0.666626 47.7884 1.50948 49.8232 3.00977 51.3235C4.51006 52.8238 6.54489 53.6667 8.66663 53.6667H24.6666C25.3739 53.6667 26.0521 53.3857 26.5522 52.8856C27.0523 52.3855 27.3333 51.7072 27.3333 51C27.3333 50.2928 27.0523 49.6145 26.5522 49.1144C26.0521 48.6143 25.3739 48.3333 24.6666 48.3333ZM27.3333 9.42666L34.24 16.3333H30C29.2927 16.3333 28.6144 16.0524 28.1143 15.5523C27.6142 15.0522 27.3333 14.3739 27.3333 13.6667V9.42666ZM14 32.3333H30C30.7072 32.3333 31.3855 32.0524 31.8856 31.5523C32.3857 31.0522 32.6666 30.3739 32.6666 29.6667C32.6666 28.9594 32.3857 28.2811 31.8856 27.781C31.3855 27.2809 30.7072 27 30 27H14C13.2927 27 12.6144 27.2809 12.1143 27.781C11.6142 28.2811 11.3333 28.9594 11.3333 29.6667C11.3333 30.3739 11.6142 31.0522 12.1143 31.5523C12.6144 32.0524 13.2927 32.3333 14 32.3333ZM24.6666 37.6667H14C13.2927 37.6667 12.6144 37.9476 12.1143 38.4477C11.6142 38.9478 11.3333 39.6261 11.3333 40.3333C11.3333 41.0406 11.6142 41.7189 12.1143 42.2189C12.6144 42.719 13.2927 43 14 43H24.6666C25.3739 43 26.0521 42.719 26.5522 42.2189C27.0523 41.7189 27.3333 41.0406 27.3333 40.3333C27.3333 39.6261 27.0523 38.9478 26.5522 38.4477C26.0521 37.9476 25.3739 37.6667 24.6666 37.6667ZM14 21.6667H16.6666C17.3739 21.6667 18.0521 21.3857 18.5522 20.8856C19.0523 20.3855 19.3333 19.7072 19.3333 19C19.3333 18.2928 19.0523 17.6145 18.5522 17.1144C18.0521 16.6143 17.3739 16.3333 16.6666 16.3333H14C13.2927 16.3333 12.6144 16.6143 12.1143 17.1144C11.6142 17.6145 11.3333 18.2928 11.3333 19C11.3333 19.7072 11.6142 20.3855 12.1143 20.8856C12.6144 21.3857 13.2927 21.6667 14 21.6667ZM50.56 38.44C50.3121 38.1901 50.0171 37.9917 49.6922 37.8563C49.3672 37.7209 49.0187 37.6512 48.6666 37.6512C48.3146 37.6512 47.966 37.7209 47.6411 37.8563C47.3161 37.9917 47.0212 38.1901 46.7733 38.44L38 47.24L34.56 43.7733C34.3113 43.5247 34.0162 43.3275 33.6913 43.1929C33.3664 43.0583 33.0183 42.9891 32.6666 42.9891C32.315 42.9891 31.9668 43.0583 31.642 43.1929C31.3171 43.3275 31.0219 43.5247 30.7733 43.7733C30.5247 44.022 30.3274 44.3171 30.1929 44.642C30.0583 44.9669 29.989 45.315 29.989 45.6667C29.989 46.0183 30.0583 46.3665 30.1929 46.6913C30.3274 47.0162 30.5247 47.3114 30.7733 47.56L36.1066 52.8933C36.3545 53.1433 36.6495 53.3417 36.9744 53.477C37.2994 53.6124 37.6479 53.6821 38 53.6821C38.352 53.6821 38.7005 53.6124 39.0255 53.477C39.3505 53.3417 39.6454 53.1433 39.8933 52.8933L50.56 42.2267C50.8099 41.9788 51.0083 41.6838 51.1437 41.3589C51.2791 41.0339 51.3488 40.6854 51.3488 40.3333C51.3488 39.9813 51.2791 39.6327 51.1437 39.3078C51.0083 38.9828 50.8099 38.6879 50.56 38.44Z" fill="#1ECBE1"/>
</svg>
